PathFileType	4	(X/Y/Z)	 s07c0401.trc
DataRate	CameraRate	NumFrames	NumMarkers	Units	OrigDataRate	OrigDataStartFrame	OrigNumFrames
200	200	6	48	mm	200	251	2000
Frame#	Time	racr			lacr			c7			jug			rlel			rdr			llel			ldr			s2			lic			ric			lasi			rasi			rpsi			lpsi			rgt			lgt			rth1			rth2			rth3			rth4			rlfc			rmfc			rsh1			rsh2			rsh3			rsh4			rlmal			rcal			rtoe			rmt5			lth1			lth2			lth4			lth3			llfc			lmfc			lsh1			lsh2			lsh3			lsh4			llmal			lcal			ltoe			lmt5			SBIKE			LBIKE			RBIKE			
		X1	Y1	Z1	X2	Y2	Z2	X3	Y3	Z3	X4	Y4	Z4	X5	Y5	Z5	X6	Y6	Z6	X7	Y7	Z7	X8	Y8	Z8	X9	Y9	Z9	X10	Y10	Z10	X11	Y11	Z11	X12	Y12	Z12	X13	Y13	Z13	X14	Y14	Z14	X15	Y15	Z15	X16	Y16	Z16	X17	Y17	Z17	X18	Y18	Z18	X19	Y19	Z19	X20	Y20	Z20	X21	Y21	Z21	X22	Y22	Z22	X23	Y23	Z23	X24	Y24	Z24	X25	Y25	Z25	X26	Y26	Z26	X27	Y27	Z27	X28	Y28	Z28	X29	Y29	Z29	X30	Y30	Z30	X31	Y31	Z31	X32	Y32	Z32	X33	Y33	Z33	X34	Y34	Z34	X35	Y35	Z35	X36	Y36	Z36	X37	Y37	Z37	X38	Y38	Z38	X39	Y39	Z39	X40	Y40	Z40	X41	Y41	Z41	X42	Y42	Z42	X43	Y43	Z43	X44	Y44	Z44	X45	Y45	Z45	X46	Y46	Z46	X47	Y47	Z47	X48	Y48	Z48	
251	1.2550	425.826074	1472.996918	-67.657465	436.199460	1472.261556	-339.624793	396.144323	1506.836699	-211.970391	380.362938	1364.776292	-212.004867	478.613419	1145.673057	53.437707	694.941738	952.047496	-32.429111	500.657462	1163.045047	-483.945303	692.599919	937.071864	-417.557502	-138.413972	1212.702869	-241.697536	24.469026	1267.581374	-380.422758	29.866259	1253.147034	-85.603654	55.980286	1187.678696	-352.964148	48.231804	1201.965620	-107.582760	-111.857233	1250.653706	-189.353151	-101.143459	1260.788366	-297.959534	-19.679095	1131.719507	-46.807799	-24.398143	1107.712311	-411.611508	110.152723	1055.522657	-44.982485	193.038100	1028.201465	-55.144596	254.527182	969.736155	-55.247864	210.752225	1059.312199	-71.089081	365.934367	870.736586	-91.255643	358.184121	854.481767	-196.131204	328.351425	732.017950	-63.461665	324.209765	643.920554	-81.443950	281.430695	568.665270	-74.798693	338.524039	643.088818	-118.931214	235.403854	438.397693	-73.709509	167.496609	399.164520	-102.100105	455.491939	365.105271	-119.351263	377.552616	334.362788	-48.076262	50.486812	1007.405777	-417.193653	127.671873	964.194318	-416.991935	152.712980	989.681661	-408.728668	173.590499	888.049867	-410.259754	277.743424	746.831583	-371.526774	260.447856	732.129236	-273.071758	173.920065	639.291031	-395.240937	128.006313	568.981470	-375.947387	51.050576	523.079678	-387.123017	130.815011	569.105960	-334.069639	-51.293301	437.459544	-387.956429	-131.707305	429.330633	-356.436757	122.580781	290.428255	-353.638512	39.314125	302.888008	-417.504307	-260.526615	978.152457	-230.661536	-76.249490	83.315974	-435.492955	-82.085055	79.451446	-37.975967	
252	1.2600	426.569861	1472.651731	-67.814877	436.883605	1471.900339	-339.850949	396.749081	1506.428267	-212.032539	381.099483	1364.189602	-212.145390	478.320223	1145.183081	53.714107	694.925254	952.059979	-31.922018	500.871309	1163.126462	-485.349407	692.565497	937.050151	-417.733893	-138.151891	1212.952378	-241.491215	18.593259	1261.947031	-364.678932	30.563733	1253.107297	-85.355538	55.878505	1187.796887	-352.877197	48.870403	1201.902983	-107.426836	-111.468657	1250.862730	-189.155167	-100.910321	1261.080208	-297.570975	-19.493045	1131.325992	-46.930889	-24.276259	1108.197572	-411.695040	109.478444	1053.097338	-44.873945	191.928096	1024.130148	-54.994681	252.401843	964.817176	-55.170766	210.180412	1055.249820	-70.696318	362.430831	864.097973	-91.075004	354.490771	848.182658	-197.974271	325.418687	724.641762	-63.766407	322.736526	636.855081	-80.864101	281.001334	561.068787	-74.263060	337.220121	636.250125	-118.282326	236.696449	430.033560	-72.992712	168.481346	391.606384	-101.286589	456.215700	355.761931	-119.601552	378.526952	325.517831	-48.004642	51.365387	1008.606317	-417.159465	129.046489	966.274400	-416.984053	153.768907	992.018324	-408.782109	175.840399	890.656604	-410.367236	281.272980	750.356467	-371.585166	264.126545	735.908012	-273.027678	175.978922	644.041682	-395.044476	128.979171	574.369103	-375.880686	51.023827	530.112026	-386.744197	132.111939	574.272541	-334.196529	-52.453193	446.000501	-387.894560	-132.936633	437.638509	-356.394813	121.738676	299.333670	-353.617440	38.485780	311.610688	-417.410110	-260.547570	978.167711	-230.658481	-76.239772	83.306042	-435.489309	-82.103536	79.449887	-37.975156	
253	1.2650	427.345505	1472.333276	-68.012226	437.602269	1471.627383	-340.091614	397.385615	1506.110448	-212.254080	381.739963	1363.602162	-212.402581	477.955294	1144.807267	54.053597	694.967308	951.979934	-31.566160	500.883060	1162.946011	-486.134372	693.120833	937.459695	-418.587016	-137.922491	1213.247081	-241.234658	18.755175	1262.054354	-364.561094	31.080188	1253.058066	-85.226243	55.755382	1187.945923	-352.776165	49.548983	1201.803992	-107.200863	-110.992686	1251.071026	-188.936941	-100.735591	1261.439040	-297.399305	-19.261978	1130.862364	-47.081059	-24.206701	1108.701399	-411.805193	108.763345	1050.413857	-44.826268	190.685276	1019.766022	-54.838236	249.926002	959.505642	-55.160278	209.487385	1050.880874	-70.404785	358.459646	857.088896	-90.803935	350.614688	839.605615	-195.147220	322.382410	717.532142	-62.880383	320.878251	629.485000	-80.091236	280.056411	553.250001	-73.594315	335.507459	628.934921	-117.581951	237.593274	421.168043	-72.317561	169.612309	382.406694	-101.368496	456.987632	346.583493	-119.248941	378.916431	316.111624	-48.214294	52.283701	1009.882680	-417.145812	130.513810	968.521343	-416.893529	154.891897	994.656488	-408.666862	178.498942	893.638084	-411.068949	285.098308	754.364472	-371.835790	268.096489	740.142558	-273.079676	178.314882	649.456020	-394.980906	130.275939	580.499017	-375.763006	51.651104	537.342415	-386.478151	133.657861	580.221052	-334.100126	-53.484964	454.769467	-387.268153	-133.659684	446.424279	-356.468809	121.374633	308.464040	-353.536646	38.054901	320.695557	-417.403487	-260.562628	978.119609	-230.686824	-76.260826	83.305099	-435.477675	-82.100418	79.440010	-37.973685	
254	1.2700	428.168602	1472.048686	-68.304046	438.305555	1471.370449	-340.397815	398.008263	1505.732099	-212.486595	382.372710	1363.200269	-212.706066	477.576017	1144.482484	54.334039	695.024600	952.064395	-31.237145	500.823828	1162.758830	-487.024643	693.104338	937.507881	-418.709326	-137.687624	1213.555904	-240.916829	18.897214	1262.237773	-364.387946	31.780538	1252.930821	-84.936933	55.619452	1188.110129	-352.622838	50.307468	1201.691082	-106.922905	-110.521374	1251.245299	-188.642745	-100.568748	1261.788474	-297.131369	-18.999882	1130.371037	-47.173974	-24.081275	1109.202359	-411.938635	107.954378	1047.466842	-44.756428	189.305691	1015.090589	-54.671682	247.236377	953.922221	-55.098128	208.784978	1045.915955	-70.171240	353.997694	849.492597	-90.294405	346.554631	832.445953	-195.462335	318.982631	709.729968	-62.034535	318.448880	621.669873	-79.315229	278.583193	544.797679	-72.861453	333.555277	620.879915	-117.135596	237.851087	412.010570	-71.651009	169.705971	373.513159	-100.723318	457.093854	337.082488	-119.378653	379.133249	306.668662	-48.049182	53.221854	1011.344934	-417.106066	131.998072	971.096090	-416.823322	156.014386	997.471331	-408.487244	180.746546	896.673318	-410.387547	289.267531	759.003648	-372.168319	272.465714	744.830351	-273.266909	181.099827	655.359929	-395.019355	132.243977	586.943396	-375.689117	53.180412	545.161073	-386.663462	135.789052	586.786740	-334.074419	-53.559493	464.071762	-386.846679	-132.939466	455.825271	-356.489854	121.549514	317.728040	-353.502427	38.168619	330.044441	-417.316099	-260.589119	978.092344	-230.657373	-76.258379	83.287319	-435.490204	-82.114852	79.440751	-37.974268	
255	1.2750	429.048040	1471.775127	-68.724443	439.068487	1471.131867	-340.737923	398.573109	1505.371501	-212.754650	383.113939	1362.800405	-212.969507	477.251108	1144.073390	54.592026	695.097846	952.150322	-30.995945	500.761125	1162.534898	-487.949568	693.112409	937.586628	-418.842803	-137.405388	1213.852982	-240.574741	18.972795	1262.458126	-364.171296	32.441208	1252.839854	-84.664969	55.391197	1188.261086	-352.407650	51.140088	1201.447094	-106.626858	-110.010923	1251.393964	-188.296323	-100.449145	1262.112568	-297.033215	-18.627294	1129.784447	-47.259568	-24.029957	1109.780445	-412.090757	107.127509	1044.376984	-44.615497	187.783399	1010.089104	-54.491074	244.358609	947.801776	-54.970933	207.808846	1040.673977	-70.068893	349.188975	841.319729	-89.985255	341.825832	824.275800	-194.981689	314.901498	701.286932	-61.274317	315.450656	613.197731	-78.570644	276.343716	535.854217	-72.013718	330.310364	612.609687	-116.095251	237.252087	402.463795	-70.970496	169.026286	364.078582	-100.078581	456.556649	327.710554	-119.396523	378.620062	297.079336	-48.113303	54.223360	1012.900127	-417.028109	133.614062	973.796817	-416.700836	157.210894	1000.516130	-408.237610	183.481725	900.155735	-410.384314	293.870570	764.163689	-372.605193	276.140591	750.361380	-273.174626	184.504418	661.800569	-395.212753	134.816474	593.995795	-375.808280	55.256482	553.151683	-386.483284	138.519374	593.722403	-334.231392	-52.770470	473.478190	-386.410597	-131.940635	465.555810	-356.345215	122.262332	326.783368	-353.403701	38.923197	339.349234	-417.226615	-260.598148	978.033228	-230.609935	-76.250405	83.303124	-435.481199	-82.097709	79.423397	-37.998135	
256	1.2800	430.055118	1471.442232	-69.104493	439.782478	1470.911333	-341.071718	399.257468	1505.124404	-213.067917	383.813227	1362.342419	-213.301382	476.962898	1143.600536	54.823889	695.145094	952.216113	-30.828417	500.601197	1162.335868	-488.882241	693.100583	937.688489	-419.013487	-137.126678	1214.214957	-240.141192	19.016629	1262.702170	-363.936169	33.245531	1252.675465	-84.223579	55.176007	1188.502457	-352.183436	52.070644	1201.239277	-106.271635	-109.363844	1251.460513	-187.891965	-100.320096	1262.499027	-296.625122	-18.107595	1129.053372	-47.315067	-23.962562	1110.556292	-412.280723	106.273147	1040.879446	-44.520942	186.109906	1004.752914	-54.292571	241.223980	941.177378	-54.836328	206.862507	1034.899033	-70.161083	343.853174	832.695706	-89.711109	336.927150	815.822598	-194.343535	310.214192	692.481072	-60.475510	311.656612	604.240509	-77.738172	273.377762	526.586655	-71.240461	326.678244	604.038614	-115.088267	235.799660	392.511828	-70.328679	167.881019	353.919287	-99.702383	455.398300	318.919332	-118.708387	377.437673	287.347381	-48.067891	55.293327	1014.623836	-416.976506	135.317499	976.847663	-416.515417	158.426097	1004.018722	-407.974184	186.389989	904.071178	-410.351278	298.900810	770.041849	-373.090635	282.917868	755.534327	-274.133059	188.803919	668.786765	-395.581645	138.246240	601.527734	-375.938869	58.206821	561.484283	-386.451715	142.125064	601.241721	-334.374589	-50.722140	483.297137	-386.308382	-129.904994	475.525461	-356.076980	123.771036	335.774388	-353.279834	40.286010	348.644214	-417.170919	-260.605943	978.002305	-230.557172	-76.257331	83.293653	-435.479363	-82.096139	79.429044	-37.974618	
